<?xml version="1.0" standalone="no"?>
<!DOCTYPE svg PUBLIC "-//W3C//DTD SVG 20010904//EN"
 "http://www.w3.org/TR/2001/REC-SVG-20010904/DTD/svg10.dtd">
<svg version="1.0" xmlns="http://www.w3.org/2000/svg"
 width="512.000000pt" height="512.000000pt" viewBox="0 0 512.000000 512.000000"
 preserveAspectRatio="xMidYMid meet">

<g transform="translate(0.000000,512.000000) scale(0.100000,-0.100000)"
fill="#000000" stroke="none">
<path d="M2321 5110 c-868 -84 -1644 -610 -2037 -1382 -139 -273 -221 -536
-266 -853 -20 -140 -17 -504 6 -660 39 -278 121 -541 247 -794 249 -502 647
-900 1150 -1150 815 -406 1779 -350 2539 147 297 194 579 482 771 788 74 116
184 342 234 478 51 138 110 376 131 531 23 157 26 521 6 660 -59 415 -191 769
-410 1099 -92 140 -185 254 -315 385 -398 403 -895 653 -1462 737 -122 18
-466 26 -594 14z m524 -221 c508 -63 974 -286 1344 -644 392 -379 629 -857
702 -1410 18 -135 15 -438 -5 -580 -73 -519 -290 -964 -650 -1333 -369 -379
-835 -613 -1371 -688 -142 -20 -445 -23 -580 -5 -526 69 -982 287 -1354 646
-394 381 -631 859 -702 1415 -16 121 -16 417 0 540 53 424 208 807 463 1148
82 110 298 331 403 414 502 395 1130 573 1750 497z"/>
<path d="M2435 4146 c-75 -18 -125 -39 -191 -81 -29 -19 -309 -282 -623 -585
-670 -647 -656 -629 -656 -825 0 -80 4 -97 32 -158 41 -86 118 -168 196 -207
33 -16 66 -30 73 -30 11 0 14 -104 16 -532 l3 -533 34 -63 c38 -70 69 -100
145 -140 l51 -27 1045 0 1045 0 51 27 c76 40 107 70 145 140 l34 63 3 533 c2
428 5 532 16 532 33 0 138 65 184 113 87 93 129 207 119 321 -8 81 -20 120
-59 186 -43 72 -1159 1150 -1239 1197 -121 71 -294 99 -424 69z m206 -210 c32
-7 77 -25 102 -39 44 -26 1151 -1086 1174 -1125 61 -102 19 -238 -90 -293 -56
-29 -146 -27 -204 3 -24 13 -249 223 -518 483 -262 253 -486 465 -498 472 -12
7 -33 12 -47 12 -14 0 -35 -5 -47 -12 -12 -7 -236 -219 -498 -472 -267 -258
-495 -470 -518 -482 -56 -30 -152 -31 -206 -3 -87 44 -132 141 -110 234 11 45
25 63 113 153 251 253 1044 1007 1084 1030 47 28 126 51 177 52 17 0 55 -5 86
-13z m369 -1180 c402 -389 456 -438 521 -470 39 -20 78 -36 85 -36 12 0 14
-83 14 -491 0 -546 0 -542 -65 -573 -28 -14 -69 -16 -252 -14 l-218 3 -5 325
c-5 306 -6 329 -28 385 -58 155 -180 274 -331 325 -277 92 -569 -49 -674 -327
-21 -54 -22 -79 -27 -383 l-5 -325 -218 -3 c-183 -2 -224 0 -252 14 -65 31
-65 27 -65 573 0 408 2 491 14 491 7 0 46 16 86 36 65 33 117 80 518 470 246
238 448 433 450 433 2 1 205 -194 452 -433z m-388 -737 c99 -21 187 -91 230
-184 22 -48 23 -61 26 -352 l3 -303 -321 0 -321 0 3 303 c3 291 4 304 26 352
41 90 123 158 216 181 66 16 75 16 138 3z"/>
</g>
</svg>
