<?xml version="1.0" standalone="no"?>
<!DOCTYPE svg PUBLIC "-//W3C//DTD SVG 20010904//EN"
 "http://www.w3.org/TR/2001/REC-SVG-20010904/DTD/svg10.dtd">
<svg version="1.0" xmlns="http://www.w3.org/2000/svg"
 width="512.000000pt" height="512.000000pt" viewBox="0 0 512.000000 512.000000"
 preserveAspectRatio="xMidYMid meet">

<g transform="translate(0.000000,512.000000) scale(0.100000,-0.100000)"
fill="#000000" stroke="none">
<path d="M2321 5110 c-868 -84 -1644 -610 -2037 -1382 -139 -273 -221 -536
-266 -853 -20 -140 -17 -504 6 -660 39 -278 121 -541 247 -794 249 -502 647
-900 1150 -1150 815 -406 1779 -350 2539 147 297 194 579 482 771 788 74 116
184 342 234 478 51 138 110 376 131 531 23 157 26 521 6 660 -59 415 -191 769
-410 1099 -92 140 -185 254 -315 385 -398 403 -895 653 -1462 737 -122 18
-466 26 -594 14z m524 -221 c508 -63 974 -286 1344 -644 392 -379 629 -857
702 -1410 18 -135 15 -438 -5 -580 -73 -519 -290 -964 -650 -1333 -369 -379
-835 -613 -1371 -688 -142 -20 -445 -23 -580 -5 -526 69 -982 287 -1354 646
-394 381 -631 859 -702 1415 -16 121 -16 417 0 540 53 424 208 807 463 1148
82 110 298 331 403 414 502 395 1130 573 1750 497z"/>
<path d="M1373 4146 c-191 -46 -353 -209 -398 -397 -13 -55 -15 -221 -15
-1189 0 -1239 -2 -1191 62 -1314 48 -90 147 -185 238 -228 41 -20 99 -41 128
-47 34 -7 224 -11 535 -11 530 0 553 2 669 61 130 66 247 220 277 367 6 31 11
163 11 313 l0 260 63 -3 62 -3 5 -111 c5 -100 8 -115 33 -153 33 -50 111 -91
172 -91 81 1 104 20 510 434 214 219 399 412 410 429 28 44 28 150 0 194 -30
47 -793 821 -827 839 -89 46 -210 15 -265 -67 -25 -38 -28 -53 -33 -153 l-5
-111 -62 -3 -63 -3 0 260 c0 150 -5 282 -11 313 -41 197 -205 367 -401 413
-85 20 -1014 20 -1095 1z m1109 -234 c76 -37 120 -82 157 -162 26 -55 26 -55
26 -320 l0 -265 -293 -5 -294 -5 -24 -28 -24 -28 0 -539 0 -539 24 -28 24 -28
294 -5 293 -5 0 -265 c0 -265 0 -265 -26 -320 -37 -80 -81 -125 -157 -162
l-67 -33 -495 0 -495 0 -67 33 c-76 37 -120 82 -157 162 l-26 55 0 1135 0
1135 26 55 c34 71 70 114 127 147 87 51 101 52 612 50 l475 -2 67 -33z m1375
-1442 c-51 -54 -213 -224 -362 -378 l-270 -282 -5 150 c-5 147 -5 150 -33 177
l-27 28 -460 3 -460 3 0 389 0 389 460 3 460 3 27 28 28 28 -3 147 -3 147 370
-369 370 -369 -92 -97z"/>
</g>
</svg>
