<?xml version="1.0" standalone="no"?>
<!DOCTYPE svg PUBLIC "-//W3C//DTD SVG 20010904//EN"
 "http://www.w3.org/TR/2001/REC-SVG-20010904/DTD/svg10.dtd">
<svg version="1.0" xmlns="http://www.w3.org/2000/svg"
 width="512.000000pt" height="512.000000pt" viewBox="0 0 512.000000 512.000000"
 preserveAspectRatio="xMidYMid meet">

<g transform="translate(0.000000,512.000000) scale(0.100000,-0.100000)"
fill="#000000" stroke="none">
<path d="M2321 5110 c-868 -84 -1644 -610 -2037 -1382 -139 -273 -221 -536
-266 -853 -20 -140 -17 -504 6 -660 39 -278 121 -541 247 -794 249 -502 647
-900 1150 -1150 815 -406 1779 -350 2539 147 297 194 579 482 771 788 74 116
184 342 234 478 51 138 110 376 131 531 23 157 26 521 6 660 -59 415 -191 769
-410 1099 -92 140 -185 254 -315 385 -399 403 -895 653 -1462 737 -122 18
-466 26 -594 14z m519 -221 c507 -60 978 -285 1347 -643 324 -313 537 -681
648 -1116 178 -704 16 -1453 -441 -2032 -74 -94 -278 -298 -372 -372 -580
-457 -1328 -619 -2032 -441 -659 167 -1211 606 -1519 1209 -259 505 -324 1086
-185 1641 152 605 542 1125 1085 1446 440 260 958 369 1469 308z"/>
<path d="M2393 4145 c-268 -48 -508 -213 -651 -445 -181 -294 -188 -678 -16
-971 19 -32 34 -60 34 -63 0 -3 -15 -6 -32 -6 -52 0 -191 -37 -261 -68 -193
-88 -337 -231 -426 -424 -117 -251 -105 -533 32 -778 57 -103 214 -260 317
-317 86 -48 197 -87 290 -102 88 -15 1671 -15 1760 0 168 27 325 106 452 227
186 177 280 414 264 662 -7 119 -28 202 -77 308 -89 193 -233 336 -426 424
-70 31 -209 68 -260 68 -18 0 -33 3 -33 6 0 3 15 31 34 63 42 72 81 170 103
257 26 104 23 344 -5 445 -103 376 -397 649 -769 714 -102 18 -232 18 -330 0z
m347 -222 c268 -65 475 -274 545 -548 23 -90 24 -255 2 -347 -66 -272 -283
-489 -555 -555 -88 -21 -256 -21 -344 0 -272 66 -489 283 -555 555 -22 92 -21
257 2 347 104 406 502 647 905 548z m-731 -1507 c104 -77 268 -143 411 -165
230 -37 505 29 691 165 l47 34 118 0 c145 0 221 -17 324 -70 187 -98 306 -267
340 -485 19 -118 -1 -237 -62 -364 -57 -120 -169 -232 -289 -289 -147 -70
-104 -67 -1029 -67 -665 0 -846 3 -890 13 -179 44 -352 183 -428 342 -53 112
-66 174 -65 295 2 236 131 444 344 555 103 54 170 68 318 69 l123 1 47 -34z"/>
</g>
</svg>
