<?xml version="1.0" standalone="no"?>
<!DOCTYPE svg PUBLIC "-//W3C//DTD SVG 20010904//EN"
 "http://www.w3.org/TR/2001/REC-SVG-20010904/DTD/svg10.dtd">
<svg version="1.0" xmlns="http://www.w3.org/2000/svg"
 width="512.000000pt" height="512.000000pt" viewBox="0 0 512.000000 512.000000"
 preserveAspectRatio="xMidYMid meet">

<g transform="translate(0.000000,512.000000) scale(0.100000,-0.100000)"
fill="#000000" stroke="none">
<path d="M2321 5110 c-868 -84 -1644 -610 -2037 -1382 -139 -273 -221 -536
-266 -853 -20 -140 -17 -504 6 -660 39 -278 121 -541 247 -794 249 -502 647
-900 1150 -1150 815 -406 1779 -350 2539 147 297 194 579 482 771 788 74 116
184 342 234 478 51 138 110 376 131 531 23 157 26 521 6 660 -59 415 -191 769
-410 1099 -92 140 -185 254 -315 385 -399 403 -895 653 -1462 737 -122 18
-466 26 -594 14z m519 -221 c507 -60 978 -285 1347 -643 324 -313 537 -681
648 -1116 178 -704 16 -1453 -441 -2032 -74 -94 -278 -298 -372 -372 -580
-457 -1328 -619 -2032 -441 -659 167 -1211 606 -1519 1209 -259 505 -324 1086
-185 1641 152 605 542 1125 1085 1446 440 260 958 369 1469 308z"/>
<path d="M2025 4150 c-164 -26 -328 -84 -455 -160 -114 -69 -175 -117 -269
-216 -205 -212 -320 -480 -337 -780 -20 -345 109 -684 356 -934 231 -233 538
-360 870 -360 190 0 385 44 530 119 l55 28 415 -413 c477 -475 469 -468 620
-469 76 0 92 3 152 33 77 38 130 92 166 171 22 46 27 71 27 141 0 148 5 142
-470 620 l-413 415 29 55 c74 142 119 340 119 525 0 258 -67 480 -211 694
-174 261 -452 446 -774 517 -85 18 -328 26 -410 14z m272 -211 c427 -47 774
-346 879 -758 151 -589 -240 -1173 -845 -1262 -113 -16 -272 -6 -391 24 -616
159 -938 838 -670 1413 147 317 458 543 801 583 106 12 119 12 226 0z m1250
-2171 c326 -327 383 -389 392 -424 11 -42 3 -93 -20 -121 -35 -41 -122 -58
-171 -32 -24 12 -778 759 -778 770 0 10 174 186 185 188 6 0 182 -171 392
-381z"/>
<path d="M2154 3831 c-78 -34 -85 -153 -13 -192 12 -6 62 -15 113 -19 346 -33
599 -292 634 -650 8 -80 13 -96 36 -119 21 -20 36 -26 72 -26 39 0 50 5 75 33
26 29 29 39 29 103 0 205 -97 433 -254 597 -154 161 -368 262 -588 276 -46 3
-93 2 -104 -3z"/>
</g>
</svg>
