<?xml version="1.0" standalone="no"?>
<!DOCTYPE svg PUBLIC "-//W3C//DTD SVG 20010904//EN"
 "http://www.w3.org/TR/2001/REC-SVG-20010904/DTD/svg10.dtd">
<svg version="1.0" xmlns="http://www.w3.org/2000/svg"
 width="512.000000pt" height="512.000000pt" viewBox="0 0 512.000000 512.000000"
 preserveAspectRatio="xMidYMid meet">

<g transform="translate(0.000000,512.000000) scale(0.100000,-0.100000)"
fill="#000000" stroke="none">
<path d="M2321 5110 c-868 -84 -1644 -610 -2037 -1382 -139 -273 -221 -536
-266 -853 -20 -140 -17 -504 6 -660 39 -278 121 -541 247 -794 249 -502 647
-900 1150 -1150 815 -406 1779 -350 2539 147 297 194 579 482 771 788 74 116
184 342 234 478 51 138 110 376 131 531 23 157 26 521 6 660 -59 415 -191 769
-410 1099 -92 140 -185 254 -315 385 -398 403 -895 653 -1462 737 -122 18
-466 26 -594 14z m524 -221 c508 -63 974 -286 1344 -644 392 -379 629 -857
702 -1410 18 -135 15 -438 -5 -580 -73 -519 -290 -964 -650 -1333 -369 -379
-835 -613 -1371 -688 -142 -20 -445 -23 -580 -5 -526 69 -982 287 -1354 646
-394 381 -631 859 -702 1415 -16 121 -16 417 0 540 53 424 208 807 463 1148
82 110 298 331 403 414 502 395 1130 573 1750 497z"/>
<path d="M2488 4146 c-27 -10 -140 -114 -390 -359 -425 -415 -465 -456 -483
-501 -34 -82 1 -193 76 -243 38 -25 53 -28 153 -33 l111 -5 3 -62 3 -63 -260
0 c-150 0 -282 -5 -313 -11 -196 -40 -367 -207 -413 -400 -22 -94 -22 -1004 0
-1098 35 -148 148 -289 285 -353 41 -20 99 -41 128 -47 37 -8 399 -11 1175
-11 1232 0 1184 -2 1309 61 130 66 247 220 277 367 15 72 15 992 0 1064 -30
147 -147 301 -277 367 -106 54 -158 61 -450 61 l-263 0 3 63 3 62 111 5 c100
5 115 8 153 33 50 33 91 110 91 171 0 80 -24 109 -436 513 -217 213 -408 396
-424 406 -39 24 -125 31 -172 13z m540 -651 l282 -270 -150 -5 c-147 -5 -150
-5 -177 -33 l-28 -27 -3 -460 -3 -460 -389 0 -389 0 -3 460 -3 460 -28 27 -28
28 -147 -3 -147 -3 369 370 369 370 97 -92 c54 -51 224 -213 378 -362z m-1068
-1123 l5 -294 28 -24 28 -24 539 0 539 0 28 24 28 24 5 294 5 293 265 0 c265
0 265 0 320 -26 80 -37 125 -81 162 -157 l33 -67 0 -495 0 -495 -26 -55 c-37
-80 -81 -125 -157 -162 l-67 -33 -1135 0 -1135 0 -67 33 c-76 37 -120 82 -157
162 l-26 55 0 495 0 495 26 55 c34 71 70 114 127 147 80 47 117 52 382 50
l245 -2 5 -293z"/>
</g>
</svg>
